<mxfile host="app.diagrams.net" modified="2022-06-09T07:12:13.682Z" agent="5.0 (Windows NT 10.0; Win64; x64) AppleWebKit/537.36 (KHTML, like Gecko) Chrome/102.0.5005.63 Safari/537.36 Edg/102.0.1245.33" etag="7Cziz5KeAxIoeQeROgwB" version="19.0.3" type="github">
  <diagram id="3rg6LskNIWuk-sokF8aN" name="第 1 页">
    <mxGraphModel dx="785" dy="528" grid="1" gridSize="10" guides="1" tooltips="1" connect="1" arrows="1" fold="1" page="1" pageScale="1" pageWidth="827" pageHeight="1169" math="0" shadow="0">
      <root>
        <mxCell id="0" />
        <mxCell id="1" parent="0" />
        <mxCell id="DlArNR8F2bi96dkaiL94-35" style="edgeStyle=none;curved=1;orthogonalLoop=1;jettySize=auto;html=1;exitX=0.5;exitY=1;exitDx=0;exitDy=0;entryX=0.5;entryY=0;entryDx=0;entryDy=0;fontSize=18;endArrow=none;endFill=0;strokeColor=default;" edge="1" parent="1" source="DlArNR8F2bi96dkaiL94-26" target="DlArNR8F2bi96dkaiL94-34">
          <mxGeometry relative="1" as="geometry">
            <Array as="points">
              <mxPoint x="130" y="130" />
              <mxPoint x="140" y="180" />
            </Array>
          </mxGeometry>
        </mxCell>
        <mxCell id="DlArNR8F2bi96dkaiL94-26" value="" style="ellipse;whiteSpace=wrap;html=1;fontSize=14;" vertex="1" parent="1">
          <mxGeometry x="120" y="60" width="30" height="30" as="geometry" />
        </mxCell>
        <mxCell id="DlArNR8F2bi96dkaiL94-34" value="债" style="rounded=1;whiteSpace=wrap;html=1;fontSize=18;" vertex="1" parent="1">
          <mxGeometry x="80" y="230" width="105" height="30" as="geometry" />
        </mxCell>
        <mxCell id="DlArNR8F2bi96dkaiL94-37" style="edgeStyle=none;curved=1;orthogonalLoop=1;jettySize=auto;html=1;exitX=0.5;exitY=0;exitDx=0;exitDy=0;entryX=0.159;entryY=1.048;entryDx=0;entryDy=0;entryPerimeter=0;fontSize=18;endArrow=none;endFill=0;strokeColor=default;dashed=1;" edge="1" parent="1" source="DlArNR8F2bi96dkaiL94-36" target="DlArNR8F2bi96dkaiL94-34">
          <mxGeometry relative="1" as="geometry">
            <Array as="points">
              <mxPoint x="60" y="310" />
              <mxPoint x="90" y="280" />
            </Array>
          </mxGeometry>
        </mxCell>
        <mxCell id="DlArNR8F2bi96dkaiL94-36" value="特征" style="rounded=1;whiteSpace=wrap;html=1;fontSize=18;fillColor=#f5f5f5;fontColor=#333333;strokeColor=#666666;" vertex="1" parent="1">
          <mxGeometry x="40" y="340" width="30" height="60" as="geometry" />
        </mxCell>
        <mxCell id="DlArNR8F2bi96dkaiL94-41" style="edgeStyle=none;curved=1;orthogonalLoop=1;jettySize=auto;html=1;exitX=0.5;exitY=0;exitDx=0;exitDy=0;entryX=0.386;entryY=1.085;entryDx=0;entryDy=0;entryPerimeter=0;dashed=1;fontSize=18;endArrow=none;endFill=0;strokeColor=default;" edge="1" parent="1" source="DlArNR8F2bi96dkaiL94-38" target="DlArNR8F2bi96dkaiL94-34">
          <mxGeometry relative="1" as="geometry">
            <Array as="points">
              <mxPoint x="113" y="310" />
            </Array>
          </mxGeometry>
        </mxCell>
        <mxCell id="DlArNR8F2bi96dkaiL94-38" value="要素" style="rounded=1;whiteSpace=wrap;html=1;fontSize=18;fillColor=#f5f5f5;fontColor=#333333;strokeColor=#666666;" vertex="1" parent="1">
          <mxGeometry x="90" y="340" width="30" height="60" as="geometry" />
        </mxCell>
        <mxCell id="DlArNR8F2bi96dkaiL94-42" style="edgeStyle=none;curved=1;orthogonalLoop=1;jettySize=auto;html=1;exitX=0.5;exitY=0;exitDx=0;exitDy=0;entryX=0.63;entryY=1.048;entryDx=0;entryDy=0;entryPerimeter=0;dashed=1;fontSize=18;endArrow=none;endFill=0;strokeColor=default;" edge="1" parent="1" source="DlArNR8F2bi96dkaiL94-39" target="DlArNR8F2bi96dkaiL94-34">
          <mxGeometry relative="1" as="geometry">
            <Array as="points">
              <mxPoint x="160" y="320" />
              <mxPoint x="150" y="300" />
            </Array>
          </mxGeometry>
        </mxCell>
        <mxCell id="DlArNR8F2bi96dkaiL94-39" value="分类" style="rounded=1;whiteSpace=wrap;html=1;fontSize=18;fillColor=#f5f5f5;fontColor=#333333;strokeColor=#666666;" vertex="1" parent="1">
          <mxGeometry x="140" y="340" width="30" height="60" as="geometry" />
        </mxCell>
        <mxCell id="DlArNR8F2bi96dkaiL94-43" style="edgeStyle=none;curved=1;orthogonalLoop=1;jettySize=auto;html=1;exitX=0.5;exitY=0;exitDx=0;exitDy=0;entryX=0.857;entryY=1;entryDx=0;entryDy=0;entryPerimeter=0;dashed=1;fontSize=18;endArrow=none;endFill=0;strokeColor=default;" edge="1" parent="1" source="DlArNR8F2bi96dkaiL94-40" target="DlArNR8F2bi96dkaiL94-34">
          <mxGeometry relative="1" as="geometry">
            <Array as="points">
              <mxPoint x="190" y="310" />
              <mxPoint x="170" y="290" />
            </Array>
          </mxGeometry>
        </mxCell>
        <mxCell id="DlArNR8F2bi96dkaiL94-40" value="法律适用" style="rounded=1;whiteSpace=wrap;html=1;fontSize=18;fillColor=#f5f5f5;fontColor=#333333;strokeColor=#666666;" vertex="1" parent="1">
          <mxGeometry x="190" y="340" width="30" height="100" as="geometry" />
        </mxCell>
      </root>
    </mxGraphModel>
  </diagram>
</mxfile>
